<svg xmlns="http://www.w3.org/2000/svg" viewBox="382 -305 1202 1202"><rect x="382" y="-305" width="1202" height="1202" fill="#050B16"/><path fill="#E8EEF6" d="M1266 57 C1264.3 60.7 1262.2 62.9 1259.3 65.8 C1255.7 69.3 1252.3 72.9 1249 76.8 C1246.5 79.6 1243.9 82.4 1241.3 85.2 C1240.8 85.7 1240.3 86.3 1239.8 86.9 C1238.7 88 1237.6 89.2 1236.6 90.3 C1232 95.2 1227.5 100.1 1223 105 C1222.5 105.5 1222 106.1 1221.5 106.6 C1211.6 116.8 1211.6 116.8 1203 128.1 C1201.4 130 1200.4 130.9 1198 131.5 C1195.4 131.7 1192.9 131.7 1190.4 131.7 C1188.9 131.7 1188.9 131.7 1187.4 131.7 C1185.3 131.7 1183.2 131.7 1181 131.7 C1175.2 131.6 1169.4 131.7 1163.6 131.7 C1162.4 131.7 1161.2 131.8 1159.9 131.8 C1145 132 1130.1 132.9 1115.3 133.9 C1113.1 134 1111 134.1 1108.8 134.3 C1104.8 134.5 1100.8 134.8 1096.8 135.1 C1095.5 135.1 1094.3 135.2 1093.1 135.3 C1092 135.4 1090.9 135.5 1089.7 135.5 C1088.8 135.6 1087.8 135.7 1086.8 135.7 C1083.8 136 1080.9 136.5 1078 137 C1075.9 137.2 1073.7 137.3 1071.6 137.4 C1070.4 137.5 1069.1 137.6 1067.9 137.7 C1065.9 137.8 1065.9 137.8 1063.9 137.9 C1052.3 138.6 1040.7 139.8 1029.2 141.7 C1026.1 142.2 1022.9 142.5 1019.8 142.9 C1004.2 145 988.6 147.5 973 150.2 C969 150.8 964.9 151.5 960.8 152.2 C949 154.1 937.4 155.9 925.9 159.1 C921.2 160.3 916.3 161 911.5 161.8 C898.3 163.9 885.5 167.3 872.6 170.6 C868.1 171.7 863.6 172.8 859.1 173.8 C819 183 778.7 195 740.5 210 C735.2 212.1 729.9 213.9 724.5 215.7 C719.9 217.3 715.5 219 711 221 C709.4 221.7 707.8 222.3 706.2 222.9 C705.3 223.3 704.5 223.6 703.6 224 C701.9 224.7 700.1 225.3 698.4 226 C693.8 227.8 689.3 229.8 684.9 232.1 C682.4 233.3 679.9 234.2 677.3 235.1 C673.4 236.6 669.6 238.4 665.8 240.2 C663.1 241.5 660.4 242.7 657.7 243.9 C597.1 270.8 540.5 303.5 492 349 C491.3 349.6 490.6 350.3 489.9 351 C471.8 368.3 457.5 391.6 449 415 C448.7 415 448.3 415 448 415 C446.5 368.7 466 332.2 496.8 298.5 C498.3 296.8 499.7 295.2 501.2 293.5 C509 284.8 517.1 276.6 526 269 C527 268.1 528.1 267.2 529.1 266.3 C546.7 251 565.3 236.6 585 224 C586 223.4 586 223.4 586.9 222.8 C617 203.3 648.4 186.8 681 172 C682.2 171.5 683.3 170.9 684.5 170.4 C698.9 163.8 713.3 157.5 727.9 151.5 C728.6 151.2 729.3 150.9 730 150.6 C738.4 147.1 746.8 144 755.5 141.2 C758.7 140.1 761.8 138.9 764.9 137.6 C772.5 134.3 780.5 131.7 788.4 129.1 C789.6 128.7 789.6 128.7 790.8 128.3 C801.6 124.7 812.4 121.3 823.4 118.3 C827 117.3 830.6 116.2 834.2 115.1 C841.1 112.9 848.1 111 855.1 109.2 C856.4 108.8 857.8 108.5 859.1 108.1 C861.8 107.4 864.4 106.7 867.1 106 C870.7 105.1 874.3 104.1 877.8 103.2 C891.1 99.6 904.4 96.5 917.9 93.6 C919.2 93.3 920.6 93 922 92.7 C922.6 92.6 923.3 92.5 924 92.3 C928.4 91.4 932.8 90.4 937.1 89.3 C953.8 85.3 970.5 82.2 987.4 79.3 C989.1 79 989.1 79 990.7 78.7 C1004.4 76.3 1018 74.3 1031.8 72.7 C1036.5 72.1 1041.2 71.4 1045.8 70.6 C1060.8 68.1 1075.9 66.7 1091 65 C1092 64.9 1093 64.8 1094.1 64.7 C1095.4 64.5 1095.4 64.5 1096.7 64.4 C1097.7 64.3 1097.7 64.3 1098.8 64.1 C1117.6 62.1 1136.5 60.6 1155.4 59.4 C1157 59.3 1157 59.3 1158.5 59.2 C1194.3 57 1230.2 56.8 1266 57 Z M1031 188 C1029.4 191.9 1026.7 194.7 1023.8 197.8 C1022.8 198.8 1021.8 199.9 1020.8 201 C1020.1 201.8 1020.1 201.8 1019.3 202.6 C1017.7 204.4 1016 206.2 1014.4 208.1 C1011.7 211.3 1008.9 214.4 1006 217.5 C1002.5 221.3 999.1 225.1 995.8 229 C993.7 231.3 991.6 233.7 989.5 236 C984.1 241.9 978.9 247.9 973.7 254 C972.6 255.3 971.6 256.5 970.5 257.7 C968.1 260.4 966 263 964.1 266.1 C961.5 269.9 959.3 272.5 954.6 273.5 C948.3 274.4 941.9 274.6 935.5 274.8 C929.7 275.1 924.1 276 918.4 276.8 C917.2 277 916.1 277.2 914.9 277.3 C911.2 277.9 907.6 278.4 904 279 C902.7 279.2 901.5 279.4 900.2 279.6 C878.5 283 856.8 286.6 835.4 291.3 C834.3 291.5 834.3 291.5 833.1 291.7 C829.8 292.3 829.8 292.3 827 294 C824.7 294.4 822.5 294.9 820.2 295.3 C800.6 298.8 781.4 304.4 762.5 310.8 C756.9 312.8 751.2 314.4 745.4 315.9 C742.6 316.8 740 317.8 737.3 318.9 C733 320.6 728.6 322.1 724.2 323.5 C669 341.1 595.8 369.4 566 422.8 C559 436.4 556.5 450.8 559.9 465.9 C561 469.1 562.4 472 564 475 C564.5 475.9 565 476.9 565.5 477.8 C579.6 502.2 608.5 515.8 634 525 C630 526.5 626.1 525.6 622 524.9 C621.2 524.7 620.4 524.6 619.6 524.5 C585.2 518.3 548.6 506.1 521 484 C520.5 483.6 520 483.2 519.4 482.7 C504.3 470.6 490.5 455.8 487 436 C484.9 408.9 493.6 388.4 511 368 C536.9 337.9 571.2 315.6 606 297 C607 296.4 608.1 295.9 609.1 295.3 C637.2 280.2 666.3 267.6 696 256 C697.1 255.6 698.2 255.1 699.3 254.7 C732 242 765.7 231.6 799.6 222.6 C802.1 222 804.6 221.3 807.1 220.6 C847.1 210 887 202 928 196 C929.3 195.8 930.6 195.6 932 195.4 C964.8 190.7 997.9 187.6 1031 188 Z M1091.2 183.2 C1093.1 183.2 1095.1 183.2 1097.1 183.2 C1102.3 183.3 1107.5 183.4 1112.7 183.4 C1118.1 183.5 1123.4 183.6 1128.7 183.6 C1139.1 183.7 1149.6 183.8 1160 184 C1158.7 186.8 1157.4 188.9 1155.3 191.1 C1154.7 191.6 1154.2 192.2 1153.7 192.8 C1153.1 193.4 1152.5 193.9 1151.9 194.6 C1148 198.7 1144.2 202.9 1140.6 207.4 C1136.4 212.7 1131.8 217.5 1127.2 222.4 C1122.9 227 1118.9 231.7 1114.9 236.7 C1112.7 239.3 1110.3 241.7 1107.8 244.1 C1105.6 246.5 1103.5 249 1101.5 251.5 C1098.4 255.3 1095.3 258.9 1091.7 262.2 C1089.9 263.9 1089.9 263.9 1088.8 266 C1086.9 269.2 1084.9 271.5 1081.1 272.4 C1075.1 273.2 1069.1 272.9 1063.1 272.8 C1061.1 272.8 1059.1 272.8 1057.2 272.7 C1052 272.7 1046.9 272.6 1041.7 272.5 C1036.5 272.5 1031.2 272.4 1025.9 272.4 C1015.6 272.3 1005.3 272.2 995 272 C995.7 268.9 996.4 267.2 998.6 264.9 C999.2 264.4 999.7 263.8 1000.3 263.2 C1000.8 262.6 1001.4 262 1002 261.4 C1006.1 257.1 1010.1 252.7 1013.9 248.1 C1016.8 244.4 1019.8 241.1 1023.2 237.9 C1025.5 235.5 1027.5 233 1029.5 230.5 C1032.6 226.7 1035.7 223.2 1039.2 219.9 C1041.5 217.5 1043.5 215 1045.5 212.5 C1048.6 208.6 1051.8 205.1 1055.3 201.7 C1057.7 199.3 1059.9 196.8 1062 194.3 C1062.7 193.5 1063.3 192.8 1064 192 C1064.3 191.4 1064.7 190.7 1065 190.1 C1070.8 180.8 1081.5 183 1091.2 183.2 Z M855.3 351.1 C857.2 351.1 859.2 351.2 861.2 351.2 C866.4 351.2 871.6 351.3 876.8 351.4 C882.1 351.5 887.4 351.5 892.8 351.6 C903.2 351.7 913.6 351.8 924 352 C923 353.1 922.1 354.3 921.1 355.4 C920.3 356.3 920.3 356.3 919.5 357.3 C914.9 362.6 910.3 367.8 905.5 373 C900.3 378.6 895.3 384.4 890.3 390.2 C885.4 395.9 880.5 401.7 875.3 407.2 C871 411.8 867 416.6 863.1 421.5 C860.8 424.3 858.3 426.8 855.7 429.3 C853.8 431.1 853.8 431.1 851.9 434.1 C850.4 435.9 849.5 436.9 847.1 437.6 C844.9 437.7 842.6 437.7 840.4 437.7 C839.5 437.7 838.6 437.7 837.8 437.7 C834.9 437.7 832.1 437.6 829.3 437.6 C827.3 437.6 825.3 437.6 823.4 437.6 C818.2 437.5 813 437.5 807.9 437.4 C802.6 437.4 797.3 437.3 792 437.3 C781.7 437.2 771.4 437.1 761 437 C762.4 434.2 763.8 432 765.9 429.6 C768.7 426.5 771.5 423.3 774.2 420.1 C779.3 414.1 784.5 408.2 789.9 402.5 C793 399.1 796.2 395.6 799.2 392 C801.5 389.5 803.7 387 806 384.5 C809.5 380.7 812.9 376.9 816.2 373 C819 369.9 821.7 366.9 824.5 363.8 C827 361.2 827 361.2 828.3 358.8 C834.8 349 844.7 350.9 855.3 351.1 Z M745.6 469.2 C746.4 469.2 747.3 469.2 748.1 469.2 C750.9 469.2 753.6 469.3 756.4 469.3 C758.3 469.3 760.2 469.3 762.2 469.3 C767.2 469.4 772.2 469.4 777.3 469.5 C782.4 469.6 787.6 469.6 792.7 469.7 C802.8 469.7 812.9 469.9 823 470 C821.4 473.5 819.4 475.9 816.8 478.7 C814 481.8 811.3 484.8 808.6 487.9 C806.1 490.7 803.6 493.5 801.1 496.3 C797.1 500.5 793.3 504.8 789.6 509.4 C785.6 514.4 781.2 519.2 776.8 523.9 C776.3 524.4 775.7 525 775.2 525.5 C774.7 526.1 774.2 526.6 773.7 527.1 C771.9 528.9 771.9 528.9 770.8 531.1 C768.9 534.2 766.9 536.5 763.1 537.4 C757.2 538.2 751.2 537.9 745.3 537.8 C743.3 537.8 741.4 537.8 739.5 537.7 C734.4 537.7 729.3 537.6 724.2 537.5 C719 537.5 713.8 537.4 708.6 537.4 C698.4 537.3 688.2 537.2 678 537 C679.8 533.1 682.3 530.3 685.2 527.2 C686.2 526.2 687.2 525.1 688.2 524 C688.7 523.5 689.2 523 689.7 522.4 C691.3 520.7 692.9 518.9 694.4 517.1 C699.5 511.2 704.8 505.6 710 500 C721.7 488.1 721.7 488.1 732.2 475.3 C736.2 469.9 739 469 745.6 469.2 Z M764 432 C764.3 432.7 764.7 433.3 765 434 C792.7 434.3 820.4 434.7 849 435 C849 435.7 849 436.3 849 437 C820 437 790.9 437 761 437 C763 433 763 433 764 432 Z M616.1 517.6 C617.3 518.1 617.3 518.1 618.6 518.7 C619.9 519.2 619.9 519.2 621.3 519.8 C622.7 520.3 622.7 520.3 624.1 520.9 C625.1 521.3 626 521.7 627 522.1 C629.3 523.1 631.7 524 634 525 C631 525.9 628.8 526 625.7 525.4 C624.9 525.3 624.1 525.2 623.3 525 C622.4 524.9 621.6 524.7 620.8 524.6 C619.9 524.4 619.1 524.3 618.2 524.1 C616.1 523.8 614.1 523.4 612 523 C612 521.3 612 519.7 612 518 C614 517 614 517 616.1 517.6 Z M522 273 C522 276 522 276 520.7 277.7 C519.8 278.6 519.8 278.6 518.9 279.5 C517.9 280.4 517.9 280.4 516.9 281.4 C516.2 282.1 515.5 282.8 514.8 283.5 C514.1 284.2 513.4 284.9 512.7 285.6 C509.6 288.6 506.5 291.4 503 294 C502.3 293.7 501.7 293.3 501 293 C503.8 290.2 506.5 287.5 509.3 284.7 C510 283.9 510.8 283.1 511.6 282.3 C512.4 281.6 513.1 280.8 513.9 280 C514.6 279.3 515.3 278.6 516 277.9 C517.9 276.1 519.9 274.5 522 273 Z M1004 142 C1006.6 142.3 1009.3 142.7 1012 143 C1012 143.3 1012 143.7 1012 144 C1007.8 144.7 1003.5 145.4 999.3 146.1 C998 146.3 996.8 146.5 995.6 146.7 C994.4 146.8 993.3 147 992.1 147.2 C991 147.4 989.9 147.6 988.8 147.8 C986.2 148 984.5 147.8 982 147 C985.5 144.7 987.8 144.4 991.9 143.8 C993.1 143.6 994.3 143.4 995.5 143.3 C998.7 143 1001 143.2 1004 144 C1004 143.3 1004 142.7 1004 142 Z M1029 231 C1030 231.3 1031 231.7 1032 232 C1030.3 233.7 1028.7 235.3 1027 237 C1026.3 236.7 1025.7 236.3 1025 236 C1026.3 234.3 1027.6 232.7 1029 231 Z M1024 237 C1024.7 237.7 1025.3 238.3 1026 239 C1024.9 239.9 1024.9 239.9 1023.7 240.8 C1021.3 242.7 1019.7 244.5 1018 247 C1017.3 246.7 1016.7 246.3 1016 246 C1017.1 244.7 1018.3 243.4 1019.4 242.1 C1020.1 241.3 1020.7 240.6 1021.4 239.8 C1022.2 238.9 1023.1 237.9 1024 237 Z M779 417 C777.8 420.7 775.8 422.3 773 425 C772 426.3 772 426.3 771 427.7 C768.8 430.2 767.2 431 764 432 C765.4 430.4 766.8 428.7 768.2 427.1 C769.4 425.6 770.7 424.2 771.9 422.8 C772.5 422 773.1 421.3 773.8 420.6 C774.3 419.9 774.9 419.2 775.5 418.5 C777 417 777 417 779 417 Z M1007 189 C1007 189.3 1007 189.7 1007 190 C1006 190.1 1005 190.1 1004 190.2 C1002.7 190.3 1001.5 190.3 1000.1 190.4 C998.9 190.5 997.6 190.6 996.3 190.7 C993.1 190.8 993.1 190.8 991 192 C988.8 191.9 986.6 191.8 984.4 191.6 C983.2 191.5 982 191.4 980.8 191.3 C979.9 191.2 978.9 191.1 978 191 C978 190.7 978 190.3 978 190 C987.7 189.1 997.3 188.9 1007 189 Z M1112 133 C1112 133.3 1112 133.7 1112 134 C1105.4 134.3 1098.8 134.7 1092 135 C1092 134.7 1092 134.3 1092 134 C1098.7 131.3 1104.9 132.2 1112 133 Z M849 212 C848 212 847 212 846 212 C846 212.7 846 213.3 846 214 C843.1 215 841.3 215.1 838.3 215.1 C837.1 215.1 837.1 215.1 835.9 215 C834.9 215 834.9 215 834 215 C843.8 209.9 843.8 209.9 849 212 Z M758 141 C758 142 758 143 758 144 C754.7 144.8 753.3 145.1 750 144 C749.7 144.7 749.3 145.3 749 146 C748.3 145.3 747.7 144.7 747 144 C748.3 143.5 749.5 143 750.8 142.5 C751.5 142.2 752.2 141.9 753 141.7 C755 141 755 141 758 141 Z M737 149 C737 150 737 151 737 152 C733.5 153.2 730.6 153.1 727 153 C730 150 732.8 149 737 149 Z M711 499 C711.7 499.7 712.3 500.3 713 501 C709.5 504 709.5 504 706 507 C705.3 506.7 704.7 506.3 704 506 C706.3 503.7 708.6 501.4 711 499 Z M448 405 C450 406 450 406 452 407 C451 409.6 450 412.3 449 415 C448.7 415 448.3 415 448 415 C448 411.7 448 408.4 448 405 Z M722 487 C722.7 487.7 723.3 488.3 724 489 C720.5 492 720.5 492 717 495 C717 492 717 492 719.5 489.3 C720.3 488.6 721.1 487.8 722 487 Z M730 478 C730.3 479 730.7 480 731 481 C729.7 482.3 728.4 483.6 727 485 C726 484.7 725 484.3 724 484 C726 482 728 480 730 478 Z M604 299 C603 302 603 302 601.2 303.3 C598.7 304.1 597.5 303.9 595 303 C601.8 299 601.8 299 604 299 Z M703 163 C702.7 164 702.3 165 702 166 C699.3 167.3 697 167.1 694 167 C696.6 164.4 699.3 163 703 163 Z M597 216 C597.7 216.3 598.3 216.7 599 217 C597.4 218.7 595.7 220.3 594 222 C593 221.3 592 220.7 591 220 C593 218.7 595 217.4 597 216 Z M940 195 C940 195.3 940 195.7 940 196 C938.9 196.2 938.9 196.2 937.7 196.4 C934.9 197 934.9 197 932 198 C929.8 197.1 929.8 197.1 928 196 C932 194.7 935.9 194.9 940 195 Z"/><path fill="#BCAC87" d="M1430 90 C1436.7 92 1443 94.7 1449.3 97.7 C1450.2 98.1 1451.2 98.6 1452.1 99 C1459.2 102.5 1465.7 106.3 1472 111 C1472.8 111.6 1473.6 112.2 1474.5 112.8 C1495.6 128.9 1514.9 153 1519 180 C1519.7 190.9 1519.7 201.6 1516 212 C1515.8 212.7 1515.5 213.4 1515.3 214.2 C1506.8 238.2 1492.6 257.8 1475 276 C1474.1 276.9 1474.1 276.9 1473.2 277.8 C1465.5 285.8 1457.8 293.3 1449 300 C1447.5 301.2 1447.5 301.2 1446 302.3 C1405.1 334.5 1358 358.6 1310.1 378.7 C1307.1 379.9 1304.2 381.3 1301.3 382.6 C1296.4 384.9 1291.4 386.7 1286.3 388.4 C1284.6 389 1282.8 389.6 1281.1 390.2 C1280.2 390.5 1279.4 390.8 1278.5 391.1 C1273.5 392.9 1268.6 394.8 1263.7 396.6 C1247.8 402.5 1231.4 407.5 1214.9 411.1 C1210.2 412.2 1205.5 413.4 1200.8 414.7 C1190.7 417.6 1180.5 419.9 1170.1 422.1 C1168.4 422.4 1166.7 422.8 1165 423.1 C1161.8 423.8 1158.5 424.5 1155.2 425.1 C1151.9 425.8 1148.6 426.5 1145.3 427.2 C1133.1 429.8 1120.8 431.6 1108.4 433.3 C1107.7 433.4 1107 433.5 1106.2 433.6 C1104.2 433.9 1102.3 434.2 1100.3 434.5 C1097.8 434.9 1095.4 435.4 1093 436 C1087 436.8 1081 437.4 1075 438 C1073.8 438.1 1072.5 438.3 1071.3 438.4 C1051.8 440.4 1032.6 441.5 1013 441 C1015.3 437 1017.9 433.8 1021.1 430.4 C1024.7 426.6 1028.1 422.7 1031.4 418.6 C1036 412.9 1041 407.6 1046 402.2 C1048.8 399.2 1051.6 396.1 1054.3 393 C1056.4 390.5 1058.7 388.1 1060.9 385.7 C1064.3 382 1067.5 378.2 1070.7 374.3 C1073.7 370.5 1076.8 367.1 1080.3 363.8 C1082 362.1 1082 362.1 1083 360.4 C1085.2 356.7 1086.4 355.2 1090.6 353.8 C1091.9 353.6 1093.3 353.4 1094.7 353.3 C1095.4 353.2 1096.2 353.1 1096.9 353 C1099.3 352.8 1101.6 352.5 1104 352.3 C1107.1 351.9 1110.2 351.5 1113.3 351.1 C1114 351.1 1114.8 351 1115.5 350.9 C1122.2 350.1 1128.5 348.6 1135 347 C1136.6 346.6 1138.3 346.3 1139.9 346 C1140.7 345.8 1141.4 345.7 1142.2 345.5 C1143.6 345.2 1145.1 344.9 1146.6 344.6 C1152.1 343.5 1157.6 342.1 1163.1 340.6 C1167.5 339.4 1172 338.3 1176.4 337.2 C1203.3 330.6 1230.7 323.7 1256.3 313.1 C1260.8 311.3 1265.5 309.8 1270.1 308.4 C1275.3 306.7 1280.1 304.6 1285 302.4 C1290 300.1 1295.2 298 1300.3 295.9 C1311.5 291.4 1322.3 286.6 1333 281 C1334.9 280.1 1336.8 279.1 1338.8 278.2 C1342.2 276.5 1345.6 274.7 1349 273 C1349.7 272.6 1350.5 272.3 1351.2 271.9 C1376.2 258.9 1400.2 242.8 1420.5 223.4 C1422 222 1423.5 220.7 1424.9 219.3 C1441 204.2 1453.8 185.2 1460 164 C1460.4 162.9 1460.8 161.8 1461.3 160.6 C1464.8 143.7 1459.7 127.2 1450.4 113 C1445.3 105.8 1439.5 98.8 1432.6 93.1 C1431.8 92.4 1430.9 91.7 1430 91 C1430 90.7 1430 90.3 1430 90 Z M1235 432 C1207.1 446.6 1179.2 460.5 1149.9 472 C1146.5 473.4 1143.2 474.9 1139.8 476.4 C1134.3 479 1128.7 480.9 1122.9 482.7 C1120 483.6 1117.3 484.7 1114.5 485.8 C1107.5 488.7 1100.2 491 1092.9 493.3 C1092.2 493.6 1091.4 493.8 1090.7 494.1 C1065.1 502.3 1039.2 508.9 1013 515 C1012.3 515.2 1011.5 515.4 1010.8 515.5 C999.4 518.2 988.1 520.2 976.6 521.9 C974.9 522.2 973.3 522.5 971.6 522.7 C966.4 523.5 961.2 524.2 956 525 C954.8 525.2 954.8 525.2 953.5 525.4 C936.2 527.9 919 530.3 901.6 531.8 C899.1 532 896.5 532.2 894 532.5 C880 533.7 866 534.7 852 535.4 C848.5 535.6 845 535.8 841.5 536 C827 536.8 812.5 537.2 798 537 C799.7 533.3 801.9 530.7 804.7 527.8 C805.6 526.8 806.5 525.8 807.4 524.8 C808.3 523.9 809.1 523 810 522 C813.3 518.3 816.5 514.5 819.8 510.8 C825.1 504.5 830.5 498.3 836 492.2 C837.9 490.1 839.8 488 841.6 485.9 C842.4 485 842.4 485 843.2 484.1 C845 482 845 482 846.5 479.9 C848.8 476.9 850.6 474.4 854.3 473.3 C857 473 859.6 473 862.4 473.1 C863.4 473.1 864.4 473.1 865.4 473.1 C868.8 473.1 872.1 473.2 875.5 473.3 C877.8 473.3 880.2 473.3 882.5 473.3 C888.7 473.3 894.8 473.4 901 473.5 C908.4 473.6 915.9 473.7 923.4 473.7 C929.2 473.8 935 473.8 940.8 473.9 C941.9 473.9 942.9 473.9 944 473.9 C946 474 948 474 950 474 C955.5 474.1 960.9 473.8 966.5 473.2 C970.9 472.8 975.4 472.7 979.9 472.6 C988 472.3 996 471.7 1004 470.8 C1013.1 469.8 1022.3 469.3 1031.5 468.7 C1033.3 468.6 1033.3 468.6 1035.2 468.5 C1036.2 468.4 1037.3 468.3 1038.4 468.3 C1041 468.1 1041 468.1 1043 467 C1044.5 466.8 1045.9 466.6 1047.4 466.4 C1048.3 466.3 1049.2 466.2 1050.2 466.1 C1051.2 466 1052.3 465.9 1053.3 465.8 C1063.8 464.5 1074.3 463.2 1084.8 461.8 C1086.4 461.6 1088 461.4 1089.6 461.2 C1098.3 460.1 1106.8 458.7 1115.3 456.6 C1119.8 455.6 1124.4 455.1 1129 454.6 C1133.3 454.1 1137.4 452.9 1141.6 451.8 C1147.2 450.4 1152.9 449.3 1158.6 448.1 C1172.5 445.2 1186.3 442.1 1200.1 438.7 C1205.8 437.3 1211.5 436 1217.2 434.6 C1220.8 433.8 1224.3 432.9 1227.8 431.8 C1231 431 1232 431.1 1235 432 Z M1201.4 184.4 C1202.3 184.4 1203.1 184.4 1204 184.4 C1204.9 184.4 1205.8 184.4 1206.7 184.4 C1209.7 184.4 1212.7 184.5 1215.7 184.5 C1217.8 184.5 1219.9 184.5 1222 184.5 C1227.4 184.5 1232.9 184.6 1238.4 184.7 C1244 184.7 1249.5 184.7 1255.1 184.8 C1266.1 184.8 1277 184.9 1288 185 C1286.3 188.7 1284.1 191.3 1281.3 194.2 C1280.4 195.2 1279.5 196.2 1278.6 197.2 C1277.3 198.6 1277.3 198.6 1276 200 C1272.7 203.7 1269.5 207.4 1266.4 211.1 C1260.6 217.9 1254.6 224.6 1248.5 231.2 C1245.2 234.7 1241.9 238.4 1238.7 242.1 C1236.6 244.4 1234.6 246.7 1232.5 249 C1229.8 252 1227.1 255 1224.5 258 C1224 258.6 1223.4 259.2 1222.9 259.8 C1220.9 262 1220.9 262 1219.4 264.5 C1216.9 268.2 1214.4 271.3 1209.9 272.6 C1203.6 273.4 1197.2 273.1 1190.8 273 C1188.7 273 1186.6 272.9 1184.6 272.9 C1179.1 272.9 1173.7 272.8 1168.3 272.7 C1162.7 272.6 1157.2 272.5 1151.6 272.5 C1140.7 272.4 1129.9 272.2 1119 272 C1119.9 270.7 1120.9 269.4 1121.8 268.2 C1122.4 267.5 1122.9 266.8 1123.4 266 C1125.4 263.4 1127.6 261.1 1129.8 258.7 C1133.1 255.1 1136.3 251.5 1139.3 247.7 C1143.9 241.9 1148.9 236.6 1154 231.2 C1156.8 228.2 1159.5 225.2 1162.2 222.1 C1164.6 219.3 1167 216.7 1169.5 214 C1173.1 210 1176.7 206.1 1180.2 202 C1183.1 198.8 1186 195.6 1188.9 192.4 C1191.1 190.1 1191.1 190.1 1192.6 187.4 C1195.6 184.4 1197.2 184.4 1201.4 184.4 Z M978.4 350.8 C980.5 350.8 982.6 350.9 984.6 350.9 C990 350.9 995.4 351 1000.9 351.2 C1006.4 351.3 1011.9 351.4 1017.5 351.4 C1028.3 351.5 1039.2 351.7 1050 352 C1050 354 1050 354 1048 356.1 C1047.5 356.6 1047 357 1046.6 357.5 C1043.5 360.5 1040.6 363.7 1037.6 366.8 C1036.7 367.8 1036.7 367.8 1035.7 368.9 C1031.9 372.9 1028.2 377 1024.6 381.2 C1022.4 383.6 1020.2 386.1 1018 388.5 C1014.6 392.3 1011.2 396.1 1007.8 399.9 C1005.6 402.4 1003.4 404.9 1001.1 407.3 C997.7 411 994.5 414.8 991.4 418.7 C988.1 422.8 984.6 426.5 980.8 430.1 C978.9 432 978.9 432 977.4 434.6 C974.4 437.6 972.8 437.6 968.6 437.6 C967.7 437.6 966.9 437.6 966 437.6 C965.1 437.6 964.2 437.6 963.3 437.6 C960.3 437.6 957.3 437.5 954.3 437.5 C952.2 437.5 950.1 437.5 948 437.5 C942.6 437.4 937.1 437.4 931.6 437.3 C926 437.3 920.4 437.3 914.9 437.2 C903.9 437.2 893 437.1 882 437 C884.8 432.7 887.7 429 891.2 425.3 C894.7 421.6 898.1 417.8 901.2 413.7 C905.7 408.2 910.6 403 915.5 397.8 C919.2 393.9 922.8 389.9 926.4 385.9 C928.7 383.2 931.1 380.6 933.5 378 C936.5 374.7 939.6 371.4 942.5 368 C943 367.4 943.5 366.9 944.1 366.3 C946.1 364 946.1 364 948 361 C956.4 349.7 965.1 350.4 978.4 350.8 Z M1318 54.3 C1318.9 54.3 1319.8 54.3 1320.7 54.3 C1323.7 54.3 1326.7 54.4 1329.6 54.4 C1331.7 54.4 1333.7 54.4 1335.8 54.4 C1341.2 54.5 1346.6 54.5 1352 54.6 C1357.5 54.6 1363 54.7 1368.5 54.7 C1379.4 54.8 1390.2 54.9 1401 55 C1399.2 58.9 1396.7 61.7 1393.8 64.7 C1392.8 65.8 1391.8 66.9 1390.8 68 C1390.3 68.5 1389.8 69 1389.3 69.5 C1387.1 72 1384.9 74.5 1382.7 77 C1380.7 79.4 1378.6 81.7 1376.5 84 C1373.8 87 1371.2 89.9 1368.6 92.9 C1365.8 96.2 1362.9 99.3 1360 102.5 C1353.8 109.3 1347.8 116.2 1341.8 123.2 C1341.3 123.8 1340.8 124.4 1340.3 125 C1339.8 125.6 1339.3 126.1 1338.8 126.7 C1338.3 127.2 1337.9 127.7 1337.4 128.3 C1335.9 130.1 1335.9 130.1 1334.5 132.6 C1331.4 135.6 1329.9 135.6 1325.7 135.6 C1324.8 135.6 1324 135.6 1323.1 135.6 C1322.2 135.6 1321.3 135.6 1320.4 135.6 C1317.4 135.6 1314.5 135.5 1311.5 135.5 C1309.4 135.5 1307.4 135.5 1305.3 135.5 C1299.9 135.4 1294.5 135.4 1289.1 135.3 C1283.6 135.3 1278 135.3 1272.5 135.2 C1261.7 135.2 1250.8 135.1 1240 135 C1241.6 130.7 1243.5 128 1246.7 124.7 C1247.6 123.7 1248.5 122.8 1249.4 121.8 C1250.7 120.4 1250.7 120.4 1252 119 C1253.2 117.6 1254.4 116.3 1255.6 114.9 C1258.9 111.1 1262.4 107.2 1265.8 103.4 C1267.7 101.3 1269.5 99.2 1271.4 97.1 C1274.8 93.2 1278.4 89.3 1282 85.4 C1285.1 82 1288.1 78.6 1291.1 75.1 C1294 71.8 1297 68.6 1300 65.4 C1302.3 62.9 1304.3 60.6 1306.1 57.9 C1309.5 53.8 1313.1 54.2 1318 54.3 Z M1235 432 C1228.6 435 1228.6 435 1222 438 C1221.3 436.7 1220.7 435.4 1220 434 C1221.8 433.5 1223.5 432.9 1225.3 432.4 C1226.2 432.1 1227.2 431.9 1228.2 431.6 C1231 431 1231 431 1235 432 Z M910 404 C910.7 404.3 911.3 404.7 912 405 C909.7 407.6 907.4 410.3 905 413 C904.3 412.7 903.7 412.3 903 412 C905.3 409.4 907.6 406.7 910 404 Z M839 491 C837.6 494.4 836 496 833 498 C833.6 494.4 834.9 491 839 491 Z M917 396 C918 396.3 919 396.7 920 397 C916.5 400 916.5 400 913 403 C914 399.2 914.2 398.4 917 396 Z"/></svg>
